<?xml version="1.0" standalone="no"?>
<!DOCTYPE svg PUBLIC "-//W3C//DTD SVG 1.1//EN" "http://www.w3.org/Graphics/SVG/1.1/DTD/svg11.dtd" >
<svg xmlns="http://www.w3.org/2000/svg">
<metadata>
Created by FontForge 20120731 at Mon Oct 10 13:25:07 2016
 By admin
</metadata>
<defs>
<font id="iconfont" horiz-adv-x="1024" >
  <font-face 
    font-family="iconfont"
    font-weight="500"
    font-stretch="normal"
    units-per-em="1024"
    panose-1="2 0 6 3 0 0 0 0 0 0"
    ascent="896"
    descent="-128"
    x-height="792"
    bbox="0 -145 1519 896"
    underline-thickness="50"
    underline-position="-100"
    unicode-range="U+0078-E619"
  />
<missing-glyph horiz-adv-x="374" 
d="M34 0v682h272v-682h-272zM68 34h204v614h-204v-614z" />
    <glyph glyph-name=".notdef" horiz-adv-x="374" 
d="M34 0v682h272v-682h-272zM68 34h204v614h-204v-614z" />
    <glyph glyph-name=".null" horiz-adv-x="0" 
 />
    <glyph glyph-name="nonmarkingreturn" horiz-adv-x="341" 
 />
    <glyph glyph-name="x" unicode="x" horiz-adv-x="1001" 
d="M281 543q-27 -1 -53 -1h-83q-18 0 -36.5 -6t-32.5 -18.5t-23 -32t-9 -45.5v-76h912v41q0 16 -0.5 30t-0.5 18q0 13 -5 29t-17 29.5t-31.5 22.5t-49.5 9h-133v-97h-438v97zM955 310v-52q0 -23 0.5 -52t0.5 -58t-10.5 -47.5t-26 -30t-33 -16t-31.5 -4.5q-14 -1 -29.5 -0.5
t-29.5 0.5h-32l-45 128h-439l-44 -128h-29h-34q-20 0 -45 1q-25 0 -41 9.5t-25.5 23t-13.5 29.5t-4 30v167h911zM163 247q-12 0 -21 -8.5t-9 -21.5t9 -21.5t21 -8.5q13 0 22 8.5t9 21.5t-9 21.5t-22 8.5zM316 123q-8 -26 -14 -48q-5 -19 -10.5 -37t-7.5 -25t-3 -15t1 -14.5
t9.5 -10.5t21.5 -4h37h67h81h80h64h36q23 0 34 12t2 38q-5 13 -9.5 30.5t-9.5 34.5q-5 19 -11 39h-368zM336 498v228q0 11 2.5 23t10 21.5t20.5 15.5t34 6h188q31 0 51.5 -14.5t20.5 -52.5v-227h-327z" />
    <glyph glyph-name="uniE600" unicode="&#xe600;" 
d="M944 641h-765q-48 0 -80.5 -25.5t-32.5 -81.5v-350h85v14q0 42 29 71t70 29t70 -29t29 -71v-14h341v14q0 41 28.5 70.5t69.5 29.5t70 -29.5t29 -70.5v-14h85v430q0 12 -8.5 19.5t-19.5 7.5zM236 441h-114v57q0 38 20.5 62t36.5 24h57v-143zM406 441h-114v143h114v-143z
M575 441h-113v143h113v-143zM745 441h-113v143h113v-143zM915 441h-113v143h113v-143zM250.5 253q-29.5 0 -50.5 -23t-21 -55t21 -54.5t50.5 -22.5t50 22.5t20.5 54.5t-20.5 55t-50 23zM788.5 253q-29.5 0 -50.5 -23t-21 -55t21 -54.5t50.5 -22.5t50.5 22.5t21 54.5t-21 55
t-50.5 23z" />
    <glyph glyph-name="uniE601" unicode="&#xe601;" 
d="M816 312q-18 0 -31 13t-13 32t13 32t31 13t31 -13t13 -32t-13 -32t-31 -13zM591 312q-18 0 -31 13t-13 32t13 32t31 13t31 -13t13 -32t-13 -32t-31 -13zM1018 248q0 109 -84 188t-206 87q-13 1 -23 1q-129 0 -220.5 -81t-91.5 -195q0 -34 9 -66q26 -91 110 -150t193 -59
q74 0 139 28l70 -48q1 -1 2 -1.5t4.5 -1.5t5.5 -0.5t3.5 4.5t1.5 11l-20 76q50 39 78.5 92.5t28.5 114.5zM227 558q-18 0 -31 13t-13 32t13 32t31 13t31 -13t13 -32t-13 -32t-31 -13zM503 648q18 0 31 -13t13 -32t-13 -32t-31 -13t-31 13t-13 32t13 32t31 13zM705 547
q7 0 20 -1q-19 116 -120.5 194t-236.5 78q-99 0 -182 -42.5t-131.5 -116t-48.5 -160.5q0 -72 34.5 -135.5t94.5 -108.5l-26 -102q-1 -2 -1 -4v-7q0 -6 2.5 -8t8 -4t15.5 4l100 69q64 -23 134 -23h6h6q-9 34 -9 68q0 81 44.5 150t122 109t167.5 40z" />
    <glyph glyph-name="uniE602" unicode="&#xe602;" 
d="M752 -62h-482v88h52v-36h378v36h52v-88zM270 831h482v-52h-482v52zM752 45h-482v710h482v-710zM322 97h378v606h-378v-606zM460 32h102v-26h-102v26z" />
    <glyph glyph-name="uniE603" unicode="&#xe603;" 
d="M808 154zM745 154q0 26 18.5 44.5t44.5 18.5t45 -18.5t19 -44.5t-19 -44.5t-45 -18.5t-44.5 18.5t-18.5 44.5zM186 154zM123 154q0 26 18.5 44.5t44.5 18.5t45 -18.5t19 -44.5t-19 -44.5t-45 -18.5t-44.5 18.5t-18.5 44.5zM1006 377l-148 99h-401q-2 -5 -6 -13t-18.5 -28
t-31 -35t-44.5 -27.5t-58 -12.5q-54 4 -103.5 -5t-79.5 -22t-55.5 -31t-32.5 -25.5t-11 -11.5v-116h88l-1 2v3q0 33 24 57t57.5 24t57 -24t23.5 -57v-3v-2h463l-1 2v3q0 33 24 57t57.5 24t57 -24t23.5 -57v-3q0 -2 -1 -2h117v228zM411 337l99 95h316l59 -95h-474zM626 439
h35v-128h-35v128zM791 455h35v-128h-35v128z" />
    <glyph glyph-name="uniE604" unicode="&#xe604;" 
d="M820 357zM776 357q0 18 13 31t31 13t31 -13t13 -31t-13 -31t-31 -13t-31 13t-13 31zM227 343zM183 343q0 18 12.5 31t31 13t31 -13t12.5 -31t-12.5 -30.5t-31 -12.5t-31 12.5t-12.5 30.5zM820.5 413q23.5 0 39.5 -16t16 -40v-4l116 2q-5 24 -5 94q-18 34 -51 63t-72 48.5
t-84 36t-86.5 24.5t-79.5 14t-63.5 5.5t-38.5 -2.5q-5 -2 -30 -27t-60 -53.5t-64 -37.5q-23 -4 -68.5 -2.5t-64.5 -1.5q-31 2 -77.5 -20.5t-78 -46t-37.5 -32.5q-11 -10 -11 -30t5 -35t6 -15l138 3v4q0 23 16.5 39.5t39.5 16.5t39.5 -16.5t16.5 -39.5v-2l483 9q-1 3 -1 6
q0 24 16.5 40t40 16zM523 586h215l88 -54h-375z" />
    <glyph glyph-name="uniE605" unicode="&#xe605;" 
d="M522.5 860q-96.5 0 -185 -37.5t-152 -101.5t-101.5 -152t-38 -185t38 -185.5t101.5 -152t152 -101.5t185 -38t185 38t152 101.5t101.5 152t38 185.5t-38 185t-101.5 152t-152 101.5t-185 37.5zM708 165q-28 -28 -112 3.5t-170.5 118t-118 170.5t-4.5 112q3 2 11.5 11
t12.5 13t12.5 10.5t14 8.5t14.5 3t16.5 -2.5t17.5 -10.5t19 -19q18 -23 26 -39.5t4.5 -29.5t-9 -20.5t-19.5 -20.5l-5 -5q-25 -26 69 -120t120 -69q2 2 5 6q13 13 20.5 18.5t20.5 9t29.5 -4t39.5 -26.5q12 -9 19 -19t10.5 -17.5t2 -16.5t-3 -14.5t-8.5 -14t-10.5 -12.5
t-12.5 -12.5t-11 -10.5z" />
    <glyph glyph-name="uniE606" unicode="&#xe606;" 
d="M295 806q13 -11 27 -23.5t25 -29.5q6 -9 14 -20.5t15 -22.5q7 -12 15 -26h233q8 12 15 24q5 10 12 20q7 11 13 18q11 16 22 30t33 27q9 6 15 15t7.5 18t-2 17.5t-15.5 12.5q-10 4 -17 2.5t-15 -3.5q-7 -3 -15 -7q-8 -3 -19 -3t-18.5 4t-13.5 9q-5 5 -13 12q-7 6 -18 10
q-23 9 -36 3.5t-27 -18.5q-11 -11 -18 -16q-3 -2 -6 -2l-12 8q-6 3 -11 7t-9 10q-9 9 -27 12t-33 -6q-19 -13 -27 -21.5t-24 -11.5q-9 -2 -19.5 1.5t-21.5 6.5t-21.5 4t-18.5 -4q-15 -13 -9.5 -30t20.5 -27zM903.5 270.5q-8.5 55.5 -29.5 98t-50 74.5t-56 56q-32 27 -57 51
t-42 43q-20 22 -34 40h-253q-14 -19 -33 -41q-16 -19 -39.5 -42t-53.5 -49q-33 -29 -62 -66t-48 -81.5t-26.5 -95t2.5 -105.5q9 -50 37.5 -100t76 -90t116.5 -65.5t157 -25.5q87 0 155 22t117.5 59t79.5 87t40 106q11 69 2.5 124.5zM644 90.5q-7 -5.5 -19 -5.5h-78v-22
q0 -10 -8.5 -19.5t-22.5 -8.5q-13 0 -22 6t-10 22v22h-77q-11 0 -18.5 6.5t-6.5 15.5q0 10 7.5 16t17.5 6h77v40h-77q-11 0 -18 6.5t-7 15.5t7.5 17t17.5 8h77l1 23q-21 21 -37 39q-15 15 -27 29l-17 15q-6 7 -10.5 19t4.5 24q10 11 24.5 6t23.5 -13l16 -16l24 -24l30 -30
q22 20 35 32q14 13 27 24q13 12 19 17q10 9 22.5 9t20.5 -10q15 -17 -11 -40q-7 -5 -20.5 -19t-27.5 -28q-15 -17 -34 -35v-21h73q15 0 22.5 -7.5t7.5 -16.5q0 -10 -6.5 -17t-22.5 -6l-73 -1l-1 -39h72q31 0 31 -23q1 -11 -6 -16.5z" />
    <glyph glyph-name="uniE607" unicode="&#xe607;" horiz-adv-x="1520" 
d="M1420 37h66q14 0 23.5 10t9.5 23v330q0 14 -9.5 24t-23.5 10h-627v429q0 14 -9.5 23.5t-23.5 9.5h-496q-109 0 -186.5 -77.5t-77.5 -186.5v-216q-30 -18 -48 -48t-18 -66v-232q0 -13 9.5 -23t23.5 -10h66q0 96 68 163.5t163.5 67.5t163.5 -67.5t68 -163.5h396
q0 96 67.5 163.5t163.5 67.5t163.5 -67.5t67.5 -163.5zM165 615q0 75 53.5 128.5t128.5 53.5h347q13 0 23 -9.5t10 -23.5v-298q0 -13 -10 -22.5t-23 -9.5h-496q-13 0 -23 9.5t-10 22.5v149zM330.5 -128q68.5 0 116.5 48.5t48 117t-48 116.5t-116.5 48t-117 -48t-48.5 -116.5
t48.5 -117t117 -48.5zM1189.5 -128q68.5 0 116.5 48.5t48 117t-48 116.5t-116.5 48t-117 -48t-48.5 -116.5t48.5 -117t117 -48.5z" />
    <glyph glyph-name="uniE608" unicode="&#xe608;" 
d="M899 641l-6 2q-100 20 -188.5 65.5t-181.5 116.5q-6 4 -15 4t-14 -4q-94 -73 -162 -111q-18 -10 -37 -18.5t-46 -17t-37.5 -11.5t-48 -13t-39.5 -10q-13 -4 -17.5 -14.5t-0.5 -22.5q10 -231 81 -387q40 -88 125.5 -158.5t189.5 -119.5q6 -3 12 -3q9 -1 17 3
q100 49 182 120t125 158q72 145 82 394q1 23 -21 27zM789 248q-66 -144 -273 -250q-199 98 -274 239q-68 126 -80 358q116 31 180 59q62 28 167 109q187 -136 354 -172q-11 -207 -74 -343zM695 528q-148 -149 -221 -223q-78 78 -117 118q-12 12 -27.5 6.5t-19.5 -19.5t7 -27
q22 -23 67 -68t68 -69q1 0 2 -1q8 -9 18.5 -10t20.5 9q19 18 107.5 107.5t134.5 136.5q12 12 6.5 27.5t-19 19.5t-27.5 -7z" />
    <glyph glyph-name="uniE609" unicode="&#xe609;" 
d="M751 504v126q0 69 -41 127.5t-106 81.5q-66 24 -134.5 5.5t-113.5 -71.5q-52 -62 -52 -143v-126h-114v-555h675v555h-114zM333 630q0 79 57.5 136.5t137 57.5t137 -57.5t57.5 -136.5v-126h-389v126zM836 -22h-617v497h85h447h85v-497zM542 318h-29v-23h-23v-29h23v-139
h29v139h23v29h-23v23z" />
    <glyph glyph-name="uniE60A" unicode="&#xe60a;" 
d="M888 292q-5 -42 -29 -84t-57.5 -76.5t-72.5 -66.5t-77.5 -55.5t-69.5 -41t-50 -26.5l-20 -9q-7 3 -19.5 9t-49.5 26.5t-70.5 42t-76 54.5t-74 66.5t-56 76t-29.5 84.5q-12 91 -13.5 203t3.5 179l5 67q14 -2 37 -5.5t76 -4t86 9.5q53 16 98.5 39t63.5 37l19 15
q7 -6 21 -16t61 -34.5t99 -40.5q33 -10 83 -10t83 5l34 5q2 -27 5 -73.5t2.5 -165.5t-12.5 -210z" />
    <glyph glyph-name="uniE60B" unicode="&#xe60b;" 
d="M339 554q-13 0 -22 -9t-9 -22t9 -22t22 -9t22 9t9 22t-9 22t-22 9zM502.5 554q-12.5 0 -21.5 -9t-9 -22t9 -22t21.5 -9t21.5 9t9 22t-9 22t-21.5 9zM710 383q-10 0 -17 -7t-7 -17t7 -17t17 -7t17.5 7t7.5 17t-7.5 17t-17.5 7zM512 839q-93 0 -177 -36t-145 -97t-97 -145
t-36 -177t36 -177t97 -145t145 -97t177 -36t177 36t145 97t97 145t36 177t-36 177t-97 145t-145 97t-177 36zM763 174l18 -58l-69 34q-34 -10 -70 -10q-66 0 -118.5 33t-71.5 85q-16 -2 -34 -2q-42 0 -82 12l-81 -41l20 70q-43 28 -67.5 69t-24.5 88q0 82 69 140t166 58
q91 0 158.5 -51.5t76.5 -126.5q78 -3 133 -51.5t55 -115.5q0 -40 -21 -74.5t-57 -58.5zM582.5 383q-10.5 0 -17.5 -7t-7 -17t7 -17t17.5 -7t17.5 7t7 17t-7 17t-17.5 7z" />
    <glyph glyph-name="uniE60C" unicode="&#xe60c;" 
d="M727 617.5q0 -90.5 -63.5 -154t-154 -63.5t-154 63.5t-63.5 154t63.5 154t154 63.5t154 -63.5t63.5 -154zM835 38q-1 -22 -10.5 -39t-24 -28.5t-39.5 -19.5t-48.5 -12.5t-61 -7t-67 -3t-75 -0.5t-75 0.5t-67 3t-61.5 7t-49.5 12.5t-39.5 19.5t-23.5 28.5t-9.5 39
q0 58 22 117t62 109t103 81.5t139 32.5q69 -1 131 -32.5t103.5 -80t66 -108t24.5 -116.5v-3z" />
    <glyph glyph-name="uniE60D" unicode="&#xe60d;" 
d="M512 769q-104 0 -193 -51.5t-140.5 -140.5t-51.5 -193t51.5 -193t140.5 -140.5t193 -51.5t193 51.5t140.5 140.5t51.5 193t-51.5 193t-140.5 140.5t-193 51.5zM512 63q-65 0 -125 25q-35 15 -65 38q3 3 5 6q36 36 83 56q43 18 90 20q6 -1 12 -1t12 1q47 -2 90 -20
q47 -20 83 -56q2 -3 5 -6q-30 -23 -65 -38q-60 -25 -125 -25zM432 304q-33 33 -33 80t33 80t80 33t80 -33t33 -80t-33 -80q-29 -29 -70 -32h-10h-10q-41 3 -70 32zM750 169q-52 55 -122 82q61 53 61 133q0 73 -52 125t-125 52t-125 -52t-52 -125q0 -80 61 -133
q-70 -27 -122 -82q-36 40 -58 90q-25 60 -25 125t25 125q25 57 69.5 101.5t101.5 69.5q60 25 125 25t125 -25q57 -25 101.5 -69.5t69.5 -101.5q25 -60 25 -125t-25 -125q-22 -50 -58 -90z" />
    <glyph glyph-name="uniE60E" unicode="&#xe60e;" horiz-adv-x="1296" 
d="M920 624q-45 119 -169 195.5t-281 76.5q-127 0 -235.5 -52t-171.5 -141t-63 -194q0 -87 43.5 -163t120.5 -131l-67 -147l178 89q93 -35 195 -35q24 0 47 2q-36 69 -36 144q0 97 56 179t152.5 129.5t209.5 47.5h21v0zM272 661q0 19 13.5 33t33 14t33.5 -14t14 -33.5
t-14 -33t-33.5 -13.5t-33 13.5t-13.5 33.5v0zM564 661q0 19 14 33t33.5 14t33 -14t13.5 -33.5t-13.5 -33t-33 -13.5t-33.5 13.5t-14 33.5zM1029 -48q-63 -18 -130 -18q-108 0 -199.5 44.5t-144.5 122t-53 168t53 168t144.5 122t199.5 44.5t199.5 -44.5t144.5 -122t53 -168.5
q0 -81 -43.5 -152t-119.5 -118l50 -126l-154 80v0zM753 352q17 0 29 12.5t12 29.5t-12 29.5t-29.5 12.5t-29.5 -12.5t-12 -29.5t12 -29.5t30 -12.5zM1024 352q18 0 30 12.5t12 29.5t-12 29.5t-29.5 12.5t-30 -12.5t-12.5 -29.5t12.5 -29.5t29.5 -12.5z" />
    <glyph glyph-name="uniE60F" unicode="&#xe60f;" 
d="M707 291q0 -27 19 -46t46 -19t46 19t19 46t-19 46t-46 19t-46 -19t-19 -46zM735 290.5q0 15.5 11 26.5t26.5 11t26 -11t10.5 -26.5t-10.5 -26.5t-26 -11t-26.5 11t-11 26.5zM925 309h-71q2 -11 2 -36h24q14 0 18 -0.5t8 0.5q2 0 5.5 6.5t7.5 16.5t6 13zM353 309
q3 -17 0 -36q330 -1 336 -1q-2 21 1 37h-337zM206 291q0 -27 19 -46t46 -19t46 19t19 46t-19 46t-46 19t-46 -19t-19 -46zM234 290.5q0 15.5 11 26.5t26.5 11t26.5 -11t11 -26.5t-11 -26.5t-26.5 -11t-26.5 11t-11 26.5zM94 312l12 -11q13 -18 27 -26q6 -2 56 -2
q-7 42 13.5 72t69.5 30q25 0 46 -12t30 -35h350q9 22 29 34t42 12q69 0 80 -46h80q1 19 -1 38h-1h-35q-9 0 -9 9t9 9h36q-1 2 -3 3q-4 2 -6 26.5t-9 32.5q-7 34 -15 55t-19.5 29t-19 10t-21.5 2h-5q-415 1 -462 -5q-21 -3 -41 -13.5t-58 -35t-70 -42.5q-47 -7 -61.5 -15
t-30.5 -38h22q5 0 8.5 -3.5t3.5 -8.5v-13q0 -5 -3.5 -8.5t-8.5 -3.5h-31zM744 514h100q4 -4 7.5 -10t2 -23.5t-18.5 -35.5q-10 -10 -91 -13v82zM605 430v84h102v-82q-43 -1 -102 -2zM449 507q1 4 3 7h115q0 -9 0.5 -41.5t0.5 -42.5h-6h-115q0 65 2 77zM238 430q3 4 8 9.5
t20 20t30 25.5t35.5 20t38.5 9h31q-1 -9 -1 -19q5 -20 -14 -65h-148z" />
    <glyph glyph-name="uniE610" unicode="&#xe610;" 
d="M923 467h29q13 0 22.5 -1.5t15 -9.5t7.5 -24l8 -78h-125q-26 23 -61.5 23t-61.5 -23h-412q-5 0 -5 -6q0 -5 5 -5h401q-20 -26 -20 -59q0 -17 6 -33h-436q6 16 6 33q0 39 -27 66t-65.5 27t-66 -27t-27.5 -66q0 -17 7 -33h-49q-36 0 -50.5 26.5t-13.5 62.5h81q6 0 6 6
q0 5 -6 5h-70v5q0 12 7 22t21.5 17.5t31 13.5t43.5 12t50 10.5t59 12t63 13.5q22 13 45 27.5t33.5 22t27.5 16.5t25.5 13t28 8.5t35 6t45.5 2.5t61 1t81 -1q31 0 65.5 -9.5t58.5 -20t63 -29.5t58 -27zM209 359q31 0 53.5 -22t22.5 -53t-22.5 -53t-53.5 -22t-53 22t-22 53
t22 53t53 22zM209 295q5 0 8 -3t3 -7.5t-3 -7.5t-7.5 -3t-8 3t-3.5 7.5t3.5 7.5t7.5 3zM242 317q6 -6 0 -11l-11 -11q-4 8 -11 11l11 11q5 6 11 0v0zM217 307q-4 2 -8 2t-8 -2v16q0 8 8 8q3 0 5.5 -2.5t2.5 -5.5v-16zM199 306q-8 -3 -12 -11l-11 11q-5 5 0 11q6 6 12 0z
M186 292q-1 -3 -1 -7.5t1 -8.5h-15q-8 0 -8 8t8 8h15zM187 274q4 -8 12 -11l-11 -11q-6 -6 -12 0q-5 5 0 11zM201 262q4 -2 8 -2t8 2v-16q0 -8 -8 -8t-8 8v16zM220 263q7 3 11 11l11 -11q6 -6 0 -11q-6 -6 -11 0zM232 276q2 4 2 8.5t-2 7.5h15q9 0 9 -8t-9 -8h-15zM209 340
q23 0 39.5 -16.5t16.5 -39.5t-16.5 -39t-39.5 -16t-39.5 16t-16.5 39t16.5 39.5t39.5 16.5zM819 359q31 0 53 -22t22 -53t-22 -53t-53.5 -22t-53.5 22t-22 53t22 53t54 22zM818 295q5 0 8 -3t3 -7.5t-3 -7.5t-7.5 -3t-7.5 3t-3 7.5t3 7.5t7 3zM851 317q6 -6 0 -11l-10 -11
q-4 8 -12 11l11 11q6 6 11 0v0zM827 307q-4 2 -8.5 2t-8.5 -2v16q0 8 8 8q4 0 6.5 -2.5t2.5 -5.5v-16zM808 306q-8 -3 -12 -11l-10 11q-6 5 0 11q5 6 11 0zM795 292q-1 -3 -1 -7.5t1 -8.5h-15q-8 0 -8 8t8 8h15zM796 274q4 -8 12 -11l-11 -11q-6 -6 -11 0q-6 5 0 11z
M810 262q4 -2 8.5 -2t8.5 2v-16q0 -8 -9 -8q-8 0 -8 8v16zM829 263q8 3 12 11l10 -11q6 -6 0 -11q-5 -6 -11 0zM842 276q1 4 1 8.5t-1 7.5h15q8 0 8 -8t-8 -8h-15zM819 340q23 0 39 -16.5t16 -39.5t-16 -39t-39.5 -16t-39.5 16t-16 39t16 39.5t40 16.5zM905 251q6 16 6 33
q0 33 -20 59h125q3 -28 -4.5 -47t-24.5 -28.5t-36.5 -13t-45.5 -3.5zM558 522h10q11 -1 15 -1v-80h124v61l3 -1l10 -4v-55q22 3 37 6.5t21 7.5t9.5 8t-2 9t-10 8.5t-17 9.5t-20.5 9.5t-23 9.5q-3 2 -5 2q-44 18 -142 21q-112 2 -154 -30q-14 -11 -41 -35.5t-29 -26.5h214v81
z" />
    <glyph glyph-name="uniE611" unicode="&#xe611;" 
d="M755 433q14 0 24.5 -10t10.5 -24v-329q0 -14 -10.5 -24t-24.5 -10h-484q-14 0 -24 10t-10 24v329q0 14 10 24t24 10h484zM755 468h-484q-28 0 -48.5 -20.5t-20.5 -48.5v-329q0 -28 20.5 -48.5t48.5 -20.5h484q29 0 49 20.5t20 48.5v329q0 28 -20 48.5t-49 20.5zM513 278
q14 0 24.5 -10t10.5 -24.5t-10.5 -24.5t-24.5 -10t-24 10t-10 24.5t10 24.5t24 10zM513 312q-28 0 -48.5 -20t-20.5 -48.5t20.5 -49t49 -20.5t48.5 20.5t20 49t-20 48.5t-49 20zM496 178h34v-51h-34v51zM513 768q-86 0 -146.5 -62.5t-60.5 -149.5v-82v-35h34v35v17v65
q0 73 51 125t122.5 52t122 -52t50.5 -125v-65v-52h35v35v82q0 87 -61 149.5t-147 62.5z" />
    <glyph glyph-name="uniE612" unicode="&#xe612;" 
d="M511.5 831q-88.5 0 -163.5 -40.5t-118.5 -111t-43.5 -152.5q0 -59 30 -147.5t73 -144.5q21 -43 76.5 -117t101 -128.5t45.5 -53.5q137 168 222 299q39 37 63.5 95.5t32 105.5t7.5 91q0 82 -43.5 152.5t-118.5 111t-163.5 40.5zM511.5 370q-79.5 0 -135.5 52.5t-56 126.5
t56 126.5t135.5 52.5t135.5 -52.5t56 -126.5t-56 -126.5t-135.5 -52.5z" />
    <glyph glyph-name="uniE613" unicode="&#xe613;" 
d="M128 599h768q18 0 30.5 -12.5t12.5 -30.5t-12.5 -30.5t-30.5 -12.5h-768q-18 0 -30.5 12.5t-12.5 30.5t12.5 30.5t30.5 12.5zM128 87h768q18 0 30.5 -12.5t12.5 -30.5t-12.5 -30.5t-30.5 -12.5h-768q-18 0 -30.5 12.5t-12.5 30.5t12.5 30.5t30.5 12.5zM128 343h768
q18 0 30.5 -12.5t12.5 -30.5t-12.5 -30.5t-30.5 -12.5h-768q-18 0 -30.5 12.5t-12.5 30.5t12.5 30.5t30.5 12.5z" />
    <glyph glyph-name="uniE614" unicode="&#xe614;" 
d="M789 603q-57 0 -96.5 40t-39.5 96v156h-488q-34 0 -58 -24t-24 -59v-856q0 -35 24 -59t58 -24h694q34 0 58 24t24 59v647h-152zM805 57h-586v55h586v-55zM805 234h-586v55h586v-55zM805 411h-586v55h586v-55zM706 895v-156q0 -34 24 -58.5t59 -24.5h152z" />
    <glyph glyph-name="uniE615" unicode="&#xe615;" 
d="M300 748l456 -447l-456 -446l-35 34l421 412l-421 412z" />
    <glyph glyph-name="uniE616" unicode="&#xe616;" 
d="M512 230l-287 288l20 20l267 -269l267 269l20 -20z" />
    <glyph glyph-name="uniE617" unicode="&#xe617;" 
d="M512 538l287 -288l-20 -20l-267 269l-267 -269l-20 20z" />
    <glyph glyph-name="uniE618" unicode="&#xe618;" 
d="M375 384l245 -228l29 29l-217 199l217 199l-29 29zM620 612z" />
    <glyph glyph-name="uniE619" unicode="&#xe619;" 
d="M404 612l-29 -29l217 -199l-217 -199l29 -29l245 228zM404 612z" />
  </font>
</defs>
</svg>
